PathFileType	4	(X/Y/Z)	PS_ngait_og_ss11.trc	
DataRate	CameraRate	NumFrames	NumMarkers	Units	OrigDataRate	OrigDataStartFrame	OrigNumFrames	
120.00	120.00	4	39	mm	120.00	734	132	
Frame#	Time	Sternum			Neck			RShoulder			LShoulder			Xiphoid			Thoracic			RAsis			LAsis			RPsis			LPsis			LThighSuperior			LThighInferior			LThighLateral			LShankSuperior			LShankInferior			LShankLateral			RThighSuperior			RThighInferior			RThighLateral			RShankSuperior			RShankInferior			RShankLateral			RHeel			RToe			RMidfootMedial			RMidfootLateral			RHindfoot			RMidfootSuperior			RToeMedial			RToeLateral			LHeel			LToe			LMidfootMedial			LMidfootLateral			LHindfoot			LMidfootSuperior			LToeMedial			LToeLateral			Sacral			
		X1	Y1	Z1	X2	Y2	Z2	X3	Y3	Z3	X4	Y4	Z4	X5	Y5	Z5	X6	Y6	Z6	X7	Y7	Z7	X8	Y8	Z8	X9	Y9	Z9	X10	Y10	Z10	X11	Y11	Z11	X12	Y12	Z12	X13	Y13	Z13	X14	Y14	Z14	X15	Y15	Z15	X16	Y16	Z16	X17	Y17	Z17	X18	Y18	Z18	X19	Y19	Z19	X20	Y20	Z20	X21	Y21	Z21	X22	Y22	Z22	X23	Y23	Z23	X24	Y24	Z24	X25	Y25	Z25	X26	Y26	Z26	X27	Y27	Z27	X28	Y28	Z28	X29	Y29	Z29	X30	Y30	Z30	X31	Y31	Z31	X32	Y32	Z32	X33	Y33	Z33	X34	Y34	Z34	X35	Y35	Z35	X36	Y36	Z36	X37	Y37	Z37	X38	Y38	Z38	X39	Y39	Z39	

1	0.000	133.23540	1414.97705	173.21588	-27.80922	1522.17700	178.82091	22.93570	1512.20569	335.45737	2.92796	1510.13794	38.07637	158.87343	1256.60583	183.80943	-117.61172	1306.55139	183.63959	59.71331	1002.10681	322.52109	81.65479	984.47656	47.85775	-123.65987	1021.98938	228.35956	-120.58185	1014.75464	124.06013	46.30408	819.59381	-10.78195	152.27397	614.09515	26.60423	186.10526	737.46625	68.61937	226.72920	390.21954	26.64017	264.80493	193.15114	65.02236	288.07025	300.22617	92.79967	-36.20060	811.40082	363.44009	-89.08213	576.99805	327.54669	38.96326	707.52991	294.69720	-157.93384	429.14844	329.86804	-247.86780	189.21457	286.98755	-153.21671	291.06198	250.61009	-370.43933	87.31451	234.06262	-56.42272	38.93921	237.41754	-157.27629	33.41677	187.58398	-160.39525	26.63427	308.17017	-213.03098	32.42962	298.32626	-184.19795	96.88735	241.74292	-111.82460	31.51466	190.92549	-108.48111	28.61049	294.31262	225.37833	56.41964	128.51382	521.19067	124.42632	62.56379	441.43076	74.74772	130.21429	423.28137	69.61101	17.83230	374.52805	55.77955	34.18307	397.71262	130.05266	85.79135	480.65436	87.23379	119.30377	463.83273	91.68291	16.75291	-122.12086	1018.37201	176.20984 
2	0.008	143.11493	1414.13220	171.62616	-18.18654	1521.24854	176.81520	32.80563	1511.74036	333.75208	12.51464	1508.67810	36.21351	168.79391	1255.84900	182.84747	-107.63382	1305.42944	182.52057	69.35874	1001.23315	322.33731	92.75545	983.76837	47.18081	-113.51328	1021.03967	227.18982	-109.78252	1013.75922	122.69437	59.22299	818.83160	-10.08043	163.24338	612.78558	28.40924	198.09903	736.02362	69.34935	234.48512	387.96948	29.24400	268.99731	191.13026	67.56389	294.16205	297.46762	95.78593	-27.31386	810.86456	363.04724	-80.70573	576.62256	327.50546	47.85715	706.76025	294.93738	-151.26093	429.47922	329.67426	-245.03685	191.05161	286.94315	-148.66721	291.26340	250.81259	-369.25580	91.08112	233.96747	-56.12750	38.35424	237.34090	-157.08502	33.96114	187.32979	-160.29219	26.59801	308.15692	-212.46506	33.11097	298.25928	-183.39304	97.40101	241.83200	-111.54588	31.64781	190.75946	-108.33157	28.20118	294.13403	227.24084	56.71986	128.88374	525.29242	117.14571	69.41934	444.57846	69.30777	134.94960	427.79373	64.63614	21.92455	378.37799	52.16764	38.03613	401.82642	125.84560	90.31148	483.23553	80.55228	125.43756	468.06128	85.54810	22.65515	-111.64790	1017.39941	174.94209 
3	0.017	152.88435	1413.43713	170.00397	-8.60410	1520.39319	174.85289	42.26719	1511.61633	331.66077	22.15018	1507.46289	34.19370	178.92511	1255.48132	181.84465	-97.59274	1304.51465	181.23589	79.04262	1000.15314	322.13245	104.07114	983.53333	46.64446	-103.25390	1020.49310	225.98466	-98.89070	1013.04010	121.21810	72.01642	817.95477	-9.06845	173.51581	611.41931	30.27149	210.17287	734.42627	70.26659	242.16484	386.10214	31.40232	274.90488	188.90147	69.74319	300.60471	295.02106	98.24195	-18.09560	810.54059	362.77075	-71.90563	576.27063	327.42581	57.17954	705.94910	295.12854	-144.13342	429.81467	329.66339	-241.88785	193.18474	286.99673	-143.59451	291.97940	250.92218	-367.54910	95.07268	233.99683	-55.82719	37.71904	237.44305	-156.89197	34.41245	187.14166	-160.26680	26.62906	308.17920	-211.87492	34.03490	298.06424	-182.56496	97.89199	241.91084	-111.21395	31.68231	190.73259	-108.22958	27.82830	294.09967	229.47176	57.35327	128.19044	529.92908	109.49120	76.52087	447.64169	63.97012	139.67453	432.37534	59.60829	25.86426	382.42542	48.09000	41.35042	406.34671	121.27251	94.22283	485.89368	73.82262	131.60751	472.88974	79.38037	28.55679	-101.07230	1016.76660	173.60138 
4	0.025	162.75124	1413.05322	168.24240	0.92537	1519.77014	172.66412	51.68039	1511.52136	329.58746	31.83307	1506.28430	32.17872	189.14066	1255.36072	180.87785	-87.44477	1303.68665	179.92326	88.99507	999.32275	321.65341	115.49666	983.28577	46.18954	-92.76093	1020.04669	224.55870	-87.90710	1012.42413	119.71297	84.39275	817.33289	-8.13256	183.01846	610.10162	31.95632	221.78935	732.50214	71.50283	250.28903	384.45285	32.84094	280.99759	187.16920	70.37997	307.11957	292.66708	99.99986	-8.66310	810.20569	362.13840	-62.66453	576.05920	327.53754	66.97763	705.35162	295.34717	-136.43140	430.31046	329.94409	-238.31346	195.65503	287.12494	-138.27632	292.33655	251.33197	-365.57962	99.82554	234.26085	-55.44222	36.95714	237.51025	-156.66270	35.00915	186.95016	-160.13011	26.62711	308.24152	-211.12851	34.93648	297.90469	-181.52286	98.48531	242.11066	-110.82290	31.76618	190.69106	-108.03241	27.34639	294.04092	232.10532	58.48471	127.36311	534.49530	100.57745	82.84302	447.66296	57.03612	144.29317	435.95062	54.65110	29.02997	386.48059	44.01063	44.04533	411.40775	116.46947	97.58097	487.71637	66.12554	136.42194	477.62921	73.08963	33.13015	-90.33401	1016.23541	172.13583 
